<svg viewBox="0 0 1440 978" fill="none" xmlns="http://www.w3.org/2000/svg" preserveAspectRatio="none">
<g clip-path="url(#clip0_142_488)">
<g clip-path="url(#clip1_142_488)">
<mask id="mask0_142_488" style="mask-type:luminance" maskUnits="userSpaceOnUse" x="0" y="0" width="1440" height="1000">
<path d="M1440 0H0V1000H1440V0Z" fill="white"/>
</mask>
<g mask="url(#mask0_142_488)">
<path d="M1440 0H0V1000H1440V0Z" fill="#3F37C9"/>
<path d="M0 238C57.6 247.8 172.8 307.2 288 287C403.2 266.8 460.8 98.9999 576 137C691.2 175 748.8 473.8 864 477C979.2 480.2 1036.8 194.6 1152 153C1267.2 111.4 1382.4 245.8 1440 269V1000H0V238Z" fill="#4361EE"/>
<path d="M0 946C96 869.6 288 570.2 480 564C672 557.8 768 909.8 960 915C1152 920.2 1344 655 1440 590V1000H0V946Z" fill="#4895EF"/>
</g>
</g>
</g>
<defs>
<clipPath id="clip0_142_488">
<rect width="1440" height="978" fill="white"/>
</clipPath>
<clipPath id="clip1_142_488">
<rect width="1440" height="1000" fill="white"/>
</clipPath>
</defs>
</svg>
