<svg width="20" height="20" viewBox="0 0 20 20" fill="none" xmlns="http://www.w3.org/2000/svg">
<mask id="mask0_8_43" style="mask-type:alpha" maskUnits="userSpaceOnUse" x="0" y="0" width="20" height="20">
<rect width="20" height="20" fill="#D9D9D9"/>
</mask>
<g mask="url(#mask0_8_43)">
<path d="M9.58332 18.3265C8.88888 18.3265 8.2986 18.0825 7.81249 17.5944C7.32638 17.1063 7.08332 16.5136 7.08332 15.8163H8.74999C8.74999 16.0533 8.82999 16.2519 8.98999 16.412C9.14943 16.5727 9.34721 16.653 9.58332 16.653C9.81943 16.653 10.0175 16.5727 10.1775 16.412C10.3369 16.2519 10.4167 16.0533 10.4167 15.8163C10.4167 15.5792 10.3369 15.3806 10.1775 15.2205C10.0175 15.0598 9.81943 14.9795 9.58332 14.9795H1.66666V13.306H9.58332C10.2778 13.306 10.868 13.5501 11.3542 14.0382C11.8403 14.5263 12.0833 15.119 12.0833 15.8163C12.0833 16.5136 11.8403 17.1063 11.3542 17.5944C10.868 18.0825 10.2778 18.3265 9.58332 18.3265ZM1.66666 9.95897V8.28546H12.9167C13.2778 8.28546 13.5764 8.16692 13.8125 7.92984C14.0486 7.69276 14.1667 7.39292 14.1667 7.03033C14.1667 6.66774 14.0486 6.3679 13.8125 6.13082C13.5764 5.89374 13.2778 5.7752 12.9167 5.7752C12.5555 5.7752 12.2569 5.89374 12.0208 6.13082C11.7847 6.3679 11.6667 6.66774 11.6667 7.03033H9.99999C9.99999 6.20752 10.2811 5.51357 10.8433 4.94848C11.4061 4.38395 12.0972 4.10168 12.9167 4.10168C13.7361 4.10168 14.4272 4.38395 14.99 4.94848C15.5522 5.51357 15.8333 6.20752 15.8333 7.03033C15.8333 7.85314 15.5522 8.54681 14.99 9.11134C14.4272 9.67643 13.7361 9.95897 12.9167 9.95897H1.66666ZM15.4167 16.653V14.9795C15.7778 14.9795 16.0764 14.861 16.3125 14.6239C16.5486 14.3868 16.6667 14.087 16.6667 13.7244C16.6667 13.3618 16.5486 13.0619 16.3125 12.8249C16.0764 12.5878 15.7778 12.4692 15.4167 12.4692H1.66666V10.7957H15.4167C16.2361 10.7957 16.9272 11.078 17.49 11.6425C18.0522 12.2076 18.3333 12.9016 18.3333 13.7244C18.3333 14.5472 18.0522 15.2411 17.49 15.8062C16.9272 16.3708 16.2361 16.653 15.4167 16.653Z" fill="white"/>
</g>
</svg>
