<svg width="24" height="24" viewBox="0 0 24 24" fill="none" xmlns="http://www.w3.org/2000/svg">
<mask id="mask0_8_43" style="mask-type:alpha" maskUnits="userSpaceOnUse" x="0" y="0" width="24" height="24">
<rect width="24" height="24" fill="#D9D9D9"/>
</mask>
<g mask="url(#mask0_8_43)">
<path d="M11.5 21.9918C10.6667 21.9918 9.95833 21.6989 9.375 21.1132C8.79167 20.5275 8.5 19.8162 8.5 18.9795H10.5C10.5 19.264 10.596 19.5023 10.788 19.6944C10.9793 19.8872 11.2167 19.9836 11.5 19.9836C11.7833 19.9836 12.021 19.8872 12.213 19.6944C12.4043 19.5023 12.5 19.264 12.5 18.9795C12.5 18.695 12.4043 18.4567 12.213 18.2646C12.021 18.0718 11.7833 17.9754 11.5 17.9754H2V15.9672H11.5C12.3333 15.9672 13.0417 16.26 13.625 16.8458C14.2083 17.4315 14.5 18.1427 14.5 18.9795C14.5 19.8162 14.2083 20.5275 13.625 21.1132C13.0417 21.6989 12.3333 21.9918 11.5 21.9918ZM2 11.9507V9.94253H15.5C15.9333 9.94253 16.2917 9.80028 16.575 9.51579C16.8583 9.23129 17 8.87148 17 8.43637C17 8.00126 16.8583 7.64145 16.575 7.35696C16.2917 7.07246 15.9333 6.93021 15.5 6.93021C15.0667 6.93021 14.7083 7.07246 14.425 7.35696C14.1417 7.64145 14 8.00126 14 8.43637H12C12 7.449 12.3373 6.61626 13.012 5.93815C13.6873 5.26072 14.5167 4.922 15.5 4.922C16.4833 4.922 17.3127 5.26072 17.988 5.93815C18.6627 6.61626 19 7.449 19 8.43637C19 9.42374 18.6627 10.2561 17.988 10.9336C17.3127 11.6117 16.4833 11.9507 15.5 11.9507H2ZM18.5 19.9836V17.9754C18.9333 17.9754 19.2917 17.8331 19.575 17.5486C19.8583 17.2641 20 16.9043 20 16.4692C20 16.0341 19.8583 15.6743 19.575 15.3898C19.2917 15.1053 18.9333 14.9631 18.5 14.9631H2V12.9549H18.5C19.4833 12.9549 20.3127 13.2936 20.988 13.971C21.6627 14.6491 22 15.4819 22 16.4692C22 17.4566 21.6627 18.2893 20.988 18.9674C20.3127 19.6449 19.4833 19.9836 18.5 19.9836Z" fill="white"/>
</g>
</svg>
