<svg width="28" height="32" viewBox="0 0 28 32" fill="none" xmlns="http://www.w3.org/2000/svg">
<path d="M25 2H3C1.34375 2 0 3.34375 0 5V27C0 28.6562 1.34375 30 3 30H25C26.6562 30 28 28.6562 28 27V5C28 3.34375 26.6562 2 25 2ZM17.3312 25.9813C16.8062 26.075 16.6125 25.75 16.6125 25.4813C16.6125 25.1438 16.625 23.4187 16.625 22.025C16.625 21.05 16.3 20.4313 15.9187 20.1063C18.2312 19.85 20.6688 19.5313 20.6688 15.5375C20.6688 14.4 20.2625 13.8313 19.6 13.1C19.7063 12.8313 20.0625 11.725 19.4937 10.2875C18.625 10.0188 16.6375 11.4062 16.6375 11.4062C15.8125 11.175 14.9188 11.0562 14.0375 11.0562C13.1563 11.0562 12.2625 11.175 11.4375 11.4062C11.4375 11.4062 9.45 10.0188 8.58125 10.2875C8.0125 11.7188 8.3625 12.825 8.475 13.1C7.8125 13.8313 7.5 14.4 7.5 15.5375C7.5 19.5125 9.83125 19.85 12.1438 20.1063C11.8438 20.375 11.575 20.8375 11.4812 21.5C10.8875 21.7688 9.36875 22.2313 8.4625 20.6313C7.89375 19.6438 6.86875 19.5625 6.86875 19.5625C5.85625 19.55 6.8 20.2 6.8 20.2C7.475 20.5125 7.95 21.7125 7.95 21.7125C8.55625 23.5687 11.4563 22.9438 11.4563 22.9438C11.4563 23.8125 11.4688 25.225 11.4688 25.4813C11.4688 25.75 11.2812 26.075 10.75 25.9813C6.625 24.6 3.7375 20.675 3.7375 16.0875C3.7375 10.35 8.125 5.99375 13.8625 5.99375C19.6 5.99375 24.25 10.35 24.25 16.0875C24.2563 20.675 21.4562 24.6063 17.3312 25.9813ZM11.2 22.1625C11.0812 22.1875 10.9688 22.1375 10.9563 22.0562C10.9438 21.9625 11.025 21.8813 11.1438 21.8563C11.2625 21.8438 11.375 21.8938 11.3875 21.975C11.4062 22.0563 11.325 22.1375 11.2 22.1625ZM10.6062 22.1063C10.6062 22.1875 10.5125 22.2563 10.3875 22.2563C10.25 22.2688 10.1562 22.2 10.1562 22.1063C10.1562 22.025 10.25 21.9562 10.375 21.9562C10.4937 21.9437 10.6062 22.0125 10.6062 22.1063ZM9.75 22.0375C9.725 22.1188 9.6 22.1562 9.49375 22.1187C9.375 22.0937 9.29375 22 9.31875 21.9188C9.34375 21.8375 9.46875 21.8 9.575 21.825C9.7 21.8625 9.78125 21.9563 9.75 22.0375ZM8.98125 21.7C8.925 21.7688 8.80625 21.7563 8.7125 21.6625C8.61875 21.5813 8.59375 21.4625 8.65625 21.4062C8.7125 21.3375 8.83125 21.35 8.925 21.4438C9.00625 21.525 9.0375 21.65 8.98125 21.7ZM8.4125 21.1313C8.35625 21.1688 8.25 21.1313 8.18125 21.0375C8.1125 20.9438 8.1125 20.8375 8.18125 20.7938C8.25 20.7375 8.35625 20.7812 8.4125 20.875C8.48125 20.9688 8.48125 21.0813 8.4125 21.1313ZM8.00625 20.525C7.95 20.5812 7.85625 20.55 7.7875 20.4875C7.71875 20.4062 7.70625 20.3125 7.7625 20.2687C7.81875 20.2125 7.9125 20.2437 7.98125 20.3062C8.05 20.3875 8.0625 20.4812 8.00625 20.525ZM7.5875 20.0625C7.5625 20.1187 7.48125 20.1312 7.4125 20.0875C7.33125 20.05 7.29375 19.9812 7.31875 19.925C7.34375 19.8875 7.4125 19.8687 7.49375 19.9C7.575 19.9437 7.6125 20.0125 7.5875 20.0625Z" fill="white"/>
</svg>
