<svg width="24" height="24" viewBox="0 0 24 24" fill="none" xmlns="http://www.w3.org/2000/svg">
<mask id="mask0_8_37" style="mask-type:alpha" maskUnits="userSpaceOnUse" x="0" y="0" width="24" height="24">
<rect width="24" height="24" fill="#D9D9D9"/>
</mask>
<g mask="url(#mask0_8_37)">
<path d="M12 23.498C9.78333 23.498 7.896 22.7241 6.338 21.1765C4.77933 19.6281 4 17.7578 4 15.5655C4 14.461 4.20433 13.4358 4.613 12.4899C5.021 11.5447 5.6 10.7123 6.35 9.99272L12 4.41992L17.65 9.99272C18.4 10.7123 18.9793 11.5447 19.388 12.4899C19.796 13.4358 20 14.461 20 15.5655C20 17.7578 19.221 19.6281 17.663 21.1765C16.1043 22.7241 14.2167 23.498 12 23.498ZM12 21.4897C13.6667 21.4897 15.0833 20.908 16.25 19.7446C17.4167 18.5818 18 17.1888 18 15.5655C18 14.7622 17.854 14.0132 17.562 13.3183C17.2707 12.6241 16.8333 12.0009 16.25 11.4487L12 7.23142L7.75 11.4487C7.16667 12.0009 6.72933 12.6241 6.438 13.3183C6.146 14.0132 6 14.7622 6 15.5655C6 17.1888 6.58333 18.5818 7.75 19.7446C8.91667 20.908 10.3333 21.4897 12 21.4897Z" fill="white"/>
</g>
</svg>
