<svg width="20" height="20" viewBox="0 0 20 20" fill="none" xmlns="http://www.w3.org/2000/svg">
<mask id="mask0_8_37" style="mask-type:alpha" maskUnits="userSpaceOnUse" x="0" y="0" width="20" height="20">
<rect width="20" height="20" fill="#D9D9D9"/>
</mask>
<g mask="url(#mask0_8_37)">
<path d="M9.99998 19.5816C8.15276 19.5816 6.57998 18.9367 5.28165 17.647C3.98276 16.3567 3.33331 14.7981 3.33331 12.9712C3.33331 12.0508 3.50359 11.1965 3.84415 10.4082C4.18415 9.62057 4.66665 8.9269 5.29165 8.32722L9.99998 3.68323L14.7083 8.32722C15.3333 8.9269 15.8161 9.62057 16.1566 10.4082C16.4966 11.1965 16.6666 12.0508 16.6666 12.9712C16.6666 14.7981 16.0175 16.3567 14.7191 17.647C13.4203 18.9367 11.8472 19.5816 9.99998 19.5816ZM9.99998 17.9081C11.3889 17.9081 12.5694 17.4233 13.5416 16.4538C14.5139 15.4848 15 14.324 15 12.9712C15 12.3018 14.8783 11.6776 14.635 11.0986C14.3922 10.5201 14.0278 10.0007 13.5416 9.54052L9.99998 6.02614L6.45831 9.54052C5.9722 10.0007 5.60776 10.5201 5.36498 11.0986C5.12165 11.6776 4.99998 12.3018 4.99998 12.9712C4.99998 14.324 5.48609 15.4848 6.45831 16.4538C7.43054 17.4233 8.61109 17.9081 9.99998 17.9081Z" fill="white"/>
</g>
</svg>
