<svg width="24" height="24" viewBox="0 0 24 24" fill="none" xmlns="http://www.w3.org/2000/svg">
<mask id="mask0_8_29" style="mask-type:alpha" maskUnits="userSpaceOnUse" x="0" y="0" width="24" height="24">
<rect width="24" height="24" fill="#D9D9D9"/>
</mask>
<g mask="url(#mask0_8_29)">
<path d="M12 13.2156C12.55 13.2156 13.021 13.0188 13.413 12.6252C13.8043 12.2323 14 11.7597 14 11.2074C14 10.6552 13.8043 10.1822 13.413 9.78861C13.021 9.39567 12.55 9.1992 12 9.1992C11.45 9.1992 10.9793 9.39567 10.588 9.78861C10.196 10.1822 10 10.6552 10 11.2074C10 11.7597 10.196 12.2323 10.588 12.6252C10.9793 13.0188 11.45 13.2156 12 13.2156ZM12 20.5958C14.0333 18.7215 15.5417 17.0185 16.525 15.4869C17.5083 13.956 18 12.5964 18 11.4082C18 9.58411 17.4207 8.09033 16.262 6.92691C15.104 5.76415 13.6833 5.18277 12 5.18277C10.3167 5.18277 8.89567 5.76415 7.737 6.92691C6.579 8.09033 6 9.58411 6 11.4082C6 12.5964 6.49167 13.956 7.475 15.4869C8.45833 17.0185 9.96667 18.7215 12 20.5958ZM12 23.2567C9.31667 20.964 7.31267 18.8343 5.988 16.8676C4.66267 14.9015 4 13.0817 4 11.4082C4 8.89797 4.80433 6.89812 6.413 5.4087C8.021 3.91927 9.88333 3.17456 12 3.17456C14.1167 3.17456 15.979 3.91927 17.587 5.4087C19.1957 6.89812 20 8.89797 20 11.4082C20 13.0817 19.3377 14.9015 18.013 16.8676C16.6877 18.8343 14.6833 20.964 12 23.2567Z" fill="white"/>
</g>
</svg>
