<svg width="32" height="32" viewBox="0 0 32 32" fill="none" xmlns="http://www.w3.org/2000/svg">
<mask id="mask0_8_18" style="mask-type:alpha" maskUnits="userSpaceOnUse" x="0" y="0" width="32" height="32">
<rect width="32" height="32" fill="#D9D9D9"/>
</mask>
<g mask="url(#mask0_8_18)">
<path d="M26.1333 28.4399L17.7333 20.0054C17.0667 20.5409 16.3 20.9649 15.4333 21.2772C14.5667 21.5896 13.6444 21.7458 12.6667 21.7458C10.2444 21.7458 8.19467 20.9037 6.51733 19.2195C4.83911 17.5344 4 15.4757 4 13.0436C4 10.6114 4.83911 8.55276 6.51733 6.86764C8.19467 5.18342 10.2444 4.34131 12.6667 4.34131C15.0889 4.34131 17.1391 5.18342 18.8173 6.86764C20.4947 8.55276 21.3333 10.6114 21.3333 13.0436C21.3333 14.0254 21.1778 14.9514 20.8667 15.8216C20.5556 16.6918 20.1333 17.4616 19.6 18.131L28 26.5655L26.1333 28.4399ZM12.6667 19.0682C14.3333 19.0682 15.7502 18.4827 16.9173 17.3117C18.0836 16.1398 18.6667 14.7171 18.6667 13.0436C18.6667 11.3701 18.0836 9.94735 16.9173 8.77544C15.7502 7.60443 14.3333 7.01893 12.6667 7.01893C11 7.01893 9.58311 7.60443 8.416 8.77544C7.24978 9.94735 6.66667 11.3701 6.66667 13.0436C6.66667 14.7171 7.24978 16.1398 8.416 17.3117C9.58311 18.4827 11 19.0682 12.6667 19.0682Z" fill="white"/>
</g>
</svg>
