<svg width="36" height="36" viewBox="0 0 36 36" fill="none" xmlns="http://www.w3.org/2000/svg">
<mask id="mask0_8_18" style="mask-type:alpha" maskUnits="userSpaceOnUse" x="0" y="0" width="36" height="36">
<rect width="36" height="36" fill="#D9D9D9"/>
</mask>
<g mask="url(#mask0_8_18)">
<path d="M29.4 31.9949L19.95 22.5061C19.2 23.1086 18.3375 23.5855 17.3625 23.937C16.3875 24.2884 15.35 24.4641 14.25 24.4641C11.525 24.4641 9.219 23.5167 7.332 21.622C5.444 19.7262 4.5 17.4103 4.5 14.6741C4.5 11.9379 5.444 9.62191 7.332 7.72616C9.219 5.83141 11.525 4.88403 14.25 4.88403C16.975 4.88403 19.2815 5.83141 21.1695 7.72616C23.0565 9.62191 24 11.9379 24 14.6741C24 15.7786 23.825 16.8204 23.475 17.7994C23.125 18.7784 22.65 19.6444 22.05 20.3975L31.5 29.8863L29.4 31.9949ZM14.25 21.4518C16.125 21.4518 17.719 20.7931 19.032 19.4757C20.344 18.1573 21 16.5568 21 14.6741C21 12.7914 20.344 11.1908 19.032 9.87244C17.719 8.55505 16.125 7.89635 14.25 7.89635C12.375 7.89635 10.781 8.55505 9.468 9.87244C8.156 11.1908 7.5 12.7914 7.5 14.6741C7.5 16.5568 8.156 18.1573 9.468 19.4757C10.781 20.7931 12.375 21.4518 14.25 21.4518Z" fill="white"/>
</g>
</svg>
