<svg width="25" height="25" viewBox="0 0 25 25" fill="none" xmlns="http://www.w3.org/2000/svg">
<mask id="mask0_8_18" style="mask-type:alpha" maskUnits="userSpaceOnUse" x="0" y="0" width="25" height="25">
<rect width="25" height="25" fill="#D9D9D9"/>
</mask>
<g mask="url(#mask0_8_18)">
<path d="M20.4167 22.2186L13.8542 15.6292C13.3333 16.0475 12.7344 16.3787 12.0573 16.6228C11.3802 16.8669 10.6597 16.9889 9.89583 16.9889C8.00347 16.9889 6.40208 16.331 5.09167 15.0152C3.78056 13.6987 3.125 12.0904 3.125 10.1902C3.125 8.29011 3.78056 6.68179 5.09167 5.3653C6.40208 4.0495 8.00347 3.3916 9.89583 3.3916C11.7882 3.3916 13.3899 4.0495 14.701 5.3653C16.0115 6.68179 16.6667 8.29011 16.6667 10.1902C16.6667 10.9573 16.5451 11.6807 16.3021 12.3606C16.059 13.0404 15.7292 13.6419 15.3125 14.1648L21.875 20.7543L20.4167 22.2186ZM9.89583 14.897C11.1979 14.897 12.3049 14.4396 13.2167 13.5247C14.1278 12.6092 14.5833 11.4977 14.5833 10.1902C14.5833 8.88281 14.1278 7.77132 13.2167 6.85577C12.3049 5.94092 11.1979 5.48349 9.89583 5.48349C8.59375 5.48349 7.48681 5.94092 6.575 6.85577C5.66389 7.77132 5.20833 8.88281 5.20833 10.1902C5.20833 11.4977 5.66389 12.6092 6.575 13.5247C7.48681 14.4396 8.59375 14.897 9.89583 14.897Z" fill="#070707"/>
</g>
</svg>
